<?xml version="1.0" encoding="UTF-8"?>
<svg version="1.1" xmlns="http://www.w3.org/2000/svg" width="512" height="512">
<path d="M0 0 C1.01790619 0.00215515 2.03581238 0.0043103 3.08456421 0.00653076 C17.69363523 0.05620146 32.02575853 0.30709809 46.375 3.3125 C47.34985352 3.51117676 48.32470703 3.70985352 49.32910156 3.91455078 C97.7109774 14.03517194 141.69928269 35.9516877 177.375 70.3125 C178.3640332 71.26068604 178.3640332 71.26068604 179.37304688 72.22802734 C188.86130305 81.37247479 197.6012044 90.66984009 205.375 101.3125 C206.23306152 102.46355017 207.09113451 103.61459177 207.94921875 104.765625 C213.98736829 112.95680614 219.34595521 121.47054105 224.375 130.3125 C224.73948242 130.94430176 225.10396484 131.57610352 225.47949219 132.22705078 C247.08534998 169.97532572 256.85198095 212.74189997 256.6875 255.9375 C256.68534485 256.95540619 256.6831897 257.97331238 256.68096924 259.02206421 C256.63129854 273.63113523 256.38040191 287.96325853 253.375 302.3125 C253.07698486 303.77478027 253.07698486 303.77478027 252.77294922 305.26660156 C242.65232806 353.6484774 220.7358123 397.63678269 186.375 433.3125 C185.74287598 433.97185547 185.11075195 434.63121094 184.45947266 435.31054688 C175.31502521 444.79880305 166.01765991 453.5387044 155.375 461.3125 C154.22394983 462.17056152 153.07290823 463.02863451 151.921875 463.88671875 C143.73224019 469.92427396 135.22961724 475.30707302 126.375 480.3125 C125.66778809 480.7146875 124.96057617 481.116875 124.23193359 481.53125 C101.09654164 494.5566741 75.92537591 503.30551461 49.9375 508.625 C49.21860596 508.77235596 48.49971191 508.91971191 47.7590332 509.0715332 C33.08339502 511.86090125 18.55831162 512.66142619 3.64770508 512.62817383 C0.70811513 512.6250221 -2.2304558 512.64854926 -5.16992188 512.67382812 C-18.54306192 512.71848737 -31.43916711 511.51301542 -44.625 509.3125 C-46.33055054 509.03031616 -46.33055054 509.03031616 -48.07055664 508.74243164 C-91.33802759 500.97044532 -132.38793216 480.98345309 -165.625 452.3125 C-166.37007813 451.67828125 -167.11515625 451.0440625 -167.8828125 450.390625 C-181.38779833 438.57948485 -194.05918743 425.82889772 -204.625 411.3125 C-205.48149066 410.16255169 -206.33826433 409.01281411 -207.1953125 407.86328125 C-213.23534209 399.67315742 -218.61867614 391.16870382 -223.625 382.3125 C-224.0271875 381.60528809 -224.429375 380.89807617 -224.84375 380.16943359 C-237.8691741 357.03404164 -246.61801461 331.86287591 -251.9375 305.875 C-252.08485596 305.15610596 -252.23221191 304.43721191 -252.3840332 303.6965332 C-255.35789088 288.05024391 -255.99800362 272.57681954 -255.9375 256.6875 C-255.93534485 255.66959381 -255.9331897 254.65168762 -255.93096924 253.60293579 C-255.88129854 238.99386477 -255.63040191 224.66174147 -252.625 210.3125 C-252.42632324 209.33764648 -252.22764648 208.36279297 -252.02294922 207.35839844 C-241.90232806 158.9765226 -219.9858123 114.98821731 -185.625 79.3125 C-184.99287598 78.65314453 -184.36075195 77.99378906 -183.70947266 77.31445312 C-174.56502521 67.82619695 -165.26765991 59.0862956 -154.625 51.3125 C-153.47394983 50.45443848 -152.32290823 49.59636549 -151.171875 48.73828125 C-142.98224019 42.70072604 -134.47961724 37.31792698 -125.625 32.3125 C-124.91778809 31.9103125 -124.21057617 31.508125 -123.48193359 31.09375 C-100.34654164 18.0683259 -75.17537591 9.31948539 -49.1875 4 C-48.46860596 3.85264404 -47.74971191 3.70528809 -47.0090332 3.5534668 C-31.36274391 0.57960912 -15.88931954 -0.06050362 0 0 Z " fill="#60B7FE" transform="translate(255.625,-0.3125)"/>
<path d="M0 0 C1.01790619 0.00215515 2.03581238 0.0043103 3.08456421 0.00653076 C17.69363523 0.05620146 32.02575853 0.30709809 46.375 3.3125 C47.34985352 3.51117676 48.32470703 3.70985352 49.32910156 3.91455078 C97.7109774 14.03517194 141.69928269 35.9516877 177.375 70.3125 C178.3640332 71.26068604 178.3640332 71.26068604 179.37304688 72.22802734 C188.86130305 81.37247479 197.6012044 90.66984009 205.375 101.3125 C206.23306152 102.46355017 207.09113451 103.61459177 207.94921875 104.765625 C213.98736829 112.95680614 219.34595521 121.47054105 224.375 130.3125 C224.73948242 130.94430176 225.10396484 131.57610352 225.47949219 132.22705078 C247.08534998 169.97532572 256.85198095 212.74189997 256.6875 255.9375 C256.68534485 256.95540619 256.6831897 257.97331238 256.68096924 259.02206421 C256.63129854 273.63113523 256.38040191 287.96325853 253.375 302.3125 C253.07698486 303.77478027 253.07698486 303.77478027 252.77294922 305.26660156 C242.65232806 353.6484774 220.7358123 397.63678269 186.375 433.3125 C185.74287598 433.97185547 185.11075195 434.63121094 184.45947266 435.31054688 C175.31502521 444.79880305 166.01765991 453.5387044 155.375 461.3125 C154.22394983 462.17056152 153.07290823 463.02863451 151.921875 463.88671875 C143.73224019 469.92427396 135.22961724 475.30707302 126.375 480.3125 C125.66778809 480.7146875 124.96057617 481.116875 124.23193359 481.53125 C101.09654164 494.5566741 75.92537591 503.30551461 49.9375 508.625 C49.21860596 508.77235596 48.49971191 508.91971191 47.7590332 509.0715332 C33.08339502 511.86090125 18.55831162 512.66142619 3.64770508 512.62817383 C0.70811513 512.6250221 -2.2304558 512.64854926 -5.16992188 512.67382812 C-18.54306192 512.71848737 -31.43916711 511.51301542 -44.625 509.3125 C-46.33055054 509.03031616 -46.33055054 509.03031616 -48.07055664 508.74243164 C-91.33802759 500.97044532 -132.38793216 480.98345309 -165.625 452.3125 C-166.37007813 451.67828125 -167.11515625 451.0440625 -167.8828125 450.390625 C-181.38779833 438.57948485 -194.05918743 425.82889772 -204.625 411.3125 C-205.48149066 410.16255169 -206.33826433 409.01281411 -207.1953125 407.86328125 C-213.23534209 399.67315742 -218.61867614 391.16870382 -223.625 382.3125 C-224.0271875 381.60528809 -224.429375 380.89807617 -224.84375 380.16943359 C-237.8691741 357.03404164 -246.61801461 331.86287591 -251.9375 305.875 C-252.08485596 305.15610596 -252.23221191 304.43721191 -252.3840332 303.6965332 C-255.35789088 288.05024391 -255.99800362 272.57681954 -255.9375 256.6875 C-255.93534485 255.66959381 -255.9331897 254.65168762 -255.93096924 253.60293579 C-255.88129854 238.99386477 -255.63040191 224.66174147 -252.625 210.3125 C-252.42632324 209.33764648 -252.22764648 208.36279297 -252.02294922 207.35839844 C-241.90232806 158.9765226 -219.9858123 114.98821731 -185.625 79.3125 C-184.99287598 78.65314453 -184.36075195 77.99378906 -183.70947266 77.31445312 C-174.56502521 67.82619695 -165.26765991 59.0862956 -154.625 51.3125 C-153.47394983 50.45443848 -152.32290823 49.59636549 -151.171875 48.73828125 C-142.98224019 42.70072604 -134.47961724 37.31792698 -125.625 32.3125 C-124.91778809 31.9103125 -124.21057617 31.508125 -123.48193359 31.09375 C-100.34654164 18.0683259 -75.17537591 9.31948539 -49.1875 4 C-48.46860596 3.85264404 -47.74971191 3.70528809 -47.0090332 3.5534668 C-31.36274391 0.57960912 -15.88931954 -0.06050362 0 0 Z M-47.625 23.3125 C-48.30852539 23.46525391 -48.99205078 23.61800781 -49.69628906 23.77539062 C-82.2193455 31.06729519 -112.46473867 46.54069492 -137.625 68.3125 C-138.49898438 69.06402344 -139.37296875 69.81554687 -140.2734375 70.58984375 C-149.0338321 78.03720535 -149.0338321 78.03720535 -155.625 87.3125 C-155.58661063 92.28392313 -155.28600646 96.65149354 -151.625 100.3125 C-153.11618571 103.86104352 -155.12753023 105.90158278 -157.9375 108.5 C-184.67030685 134.77056811 -202.32557138 171.15372535 -210.625 207.3125 C-210.92019531 208.54226562 -211.21539062 209.77203125 -211.51953125 211.0390625 C-214.69905381 224.91619052 -215.95023494 238.56924421 -215.83081055 252.7590332 C-215.81242326 255.00939239 -215.81030298 257.25933855 -215.81054688 259.50976562 C-215.78283326 271.54158731 -215.32105464 283.38182621 -212.8125 295.1875 C-212.63364258 296.04553223 -212.45478516 296.90356445 -212.27050781 297.78759766 C-203.06107914 341.1884465 -183.22393028 379.08014664 -151.625 410.3125 C-153.625 414.3125 -153.625 414.3125 -154.75 416.125 C-156.04980821 419.37452053 -155.98407702 421.84142217 -155.625 425.3125 C-140.20950334 451.34366822 -104.68045175 469.47306821 -77.625 480.3125 C-76.00851563 480.96992187 -76.00851563 480.96992187 -74.359375 481.640625 C-58.1631991 487.82177426 -40.89119814 491.85471792 -23.625 493.3125 C-22.531875 493.42207031 -21.43875 493.53164063 -20.3125 493.64453125 C4.29415271 495.82082719 28.3457657 493.77806165 52.375 488.3125 C53.85806641 487.97605469 53.85806641 487.97605469 55.37109375 487.6328125 C58.07633853 486.94911569 60.71623028 486.16067524 63.375 485.3125 C64.06464844 485.09255371 64.75429688 484.87260742 65.46484375 484.64599609 C89.89751103 476.74399992 112.25129901 465.34226755 132.375 449.3125 C133.29539062 448.59578125 134.21578125 447.8790625 135.1640625 447.140625 C147.72210416 437.78194098 147.72210416 437.78194098 156.375 425.3125 C156.53127043 421.0857569 156.02160603 417.37293388 153.8125 413.75 C153.338125 413.275625 152.86375 412.80125 152.375 412.3125 C153.82245751 408.93759907 155.63503854 406.92613507 158.3125 404.4375 C164.31959548 398.55575322 169.35610198 392.0362122 174.375 385.3125 C175.12652344 384.30574219 175.87804687 383.29898437 176.65234375 382.26171875 C197.73539801 352.86744238 211.37457248 318.28900098 215.375 282.3125 C215.4678125 281.58538818 215.560625 280.85827637 215.65625 280.10913086 C220.90795661 235.47431369 211.39581836 191.77133807 190.375 152.3125 C189.48941406 150.61287109 189.48941406 150.61287109 188.5859375 148.87890625 C179.09159757 131.40528064 166.43070108 116.26921727 152.375 102.3125 C154.2067757 97.60221963 154.2067757 97.60221963 155.5 95.375 C156.73670083 92.45991948 156.75241875 90.45765623 156.375 87.3125 C145.20150973 68.58727148 123.77743789 55.92303041 105.375 45.3125 C104.76011719 44.94817871 104.14523437 44.58385742 103.51171875 44.20849609 C59.61418211 18.28120935 1.63714872 11.43959312 -47.625 23.3125 Z " fill="#26A6FD" transform="translate(255.625,-0.3125)"/>
<path d="M0 0 C3.86395708 1.8546994 6.39386805 4.39001013 9.3125 7.4375 C24.94104132 23.36147688 45.53057873 35.43243209 66 44 C66.6172998 44.25974609 67.23459961 44.51949219 67.87060547 44.78710938 C114.19495386 64.00489283 165.99755155 61.68105227 212 43 C233.28554939 34.10516851 251.53394625 21.39744667 268.22265625 5.56640625 C273.26506311 0.906967 275.63216868 -0.58121888 282.52734375 -0.34765625 C286.23264536 0.17331033 288.27549645 1.47485037 291 4 C293.64201025 8.05108238 294.70236884 11.1837565 294 16 C282.7804312 34.70785899 261.43382735 47.39937664 243 58 C242.36916504 58.36963867 241.73833008 58.73927734 241.08837891 59.12011719 C194.84871689 86.05704781 134.80683992 91.98282362 83.421875 78.56640625 C50.25532038 69.56102463 1.45158761 49.38622172 -17.2109375 17.9609375 C-18.47355048 14.82315672 -18.34594155 12.3441017 -18 9 C-13.60160508 0.83155229 -8.97607255 -1.2435005 0 0 Z " fill="#FDDC35" transform="translate(118,409)"/>
<path d="M0 0 C0.92039062 0.71671875 1.84078125 1.4334375 2.7890625 2.171875 C21.58632462 17.10378463 21.58632462 17.10378463 24 24 C24.24137178 28.49756077 23.55333627 32.10321363 21.1875 35.9375 C17.09236663 39.79862575 13.25314114 40.75472665 7.69921875 40.625 C2.22973509 39.35854937 -1.16496061 34.86311435 -5 31 C-24.56821365 13.20590045 -46.85106366 0.60948723 -71.71142578 -8.18798828 C-73.58485121 -8.85270057 -75.44830238 -9.54546453 -77.30859375 -10.24609375 C-87.8769455 -13.93139416 -99.19234211 -15.06437197 -110.23266602 -16.60791016 C-112.38407589 -16.91273276 -114.53104893 -17.24893782 -116.67578125 -17.59765625 C-162.52685647 -23.14719884 -210.94675588 -6.96187769 -247 21 C-251.44159913 24.54445878 -255.73942531 28.24101652 -260 32 C-261.56245172 33.37505486 -263.12494445 34.75006313 -264.6875 36.125 C-265.28949219 36.66382812 -265.89148438 37.20265625 -266.51171875 37.7578125 C-269.92391047 40.60578354 -273.2409581 40.33288023 -277.5234375 40.27734375 C-281.10001825 39.87681184 -282.66055681 38.69390428 -285 36 C-287.57975474 31.90797525 -288.70400444 28.82745902 -288 24 C-268.96556129 -7.63774052 -223.09483722 -28.93015193 -189 -37.875 C-186.00753147 -38.6184896 -183.00639308 -39.31539656 -180 -40 C-178.77796875 -40.29519531 -177.5559375 -40.59039062 -176.296875 -40.89453125 C-115.45227967 -54.49745289 -48.59605292 -38.70974989 0 0 Z " fill="#FDDC34" transform="translate(388,63)"/>
<path d="M0 0 C1.12547241 -0.00855011 1.12547241 -0.00855011 2.27368164 -0.01727295 C3.86749867 -0.02673144 5.46133533 -0.03326029 7.05517578 -0.03710938 C9.46292849 -0.04672692 11.86979472 -0.07770323 14.27734375 -0.109375 C28.6004394 -0.21022941 38.65915405 2.06748271 49.5078125 12.05078125 C54.30077985 17.1031083 56.96847708 22.77007853 59.5 29.203125 C59.9125 30.234375 60.325 31.265625 60.75 32.328125 C65.1333449 49.13094713 62.20106763 65.82843576 54.4140625 81.046875 C48.31566961 91.10300042 39.59681476 97.60177942 28.171875 100.546875 C21.65886283 101.66959999 15.02804455 101.59889987 8.4375 101.640625 C6.50910278 101.6559729 6.50910278 101.6559729 4.54174805 101.67163086 C3.32011963 101.66010986 2.09849121 101.64858887 0.83984375 101.63671875 C-0.25980713 101.62697021 -1.35945801 101.61722168 -2.49243164 101.60717773 C-6.6549952 101.0479568 -9.13810453 99.53255097 -12.11795044 96.62374878 C-14.12700839 93.10493614 -13.92622883 89.6943153 -13.90405273 85.75024414 C-13.91091599 84.89937729 -13.91777924 84.04851044 -13.92485046 83.17185974 C-13.94314491 80.36049694 -13.93927716 77.54969078 -13.93359375 74.73828125 C-13.93815436 72.78299274 -13.94345957 70.82770583 -13.94947815 68.87242126 C-13.95841451 64.77433765 -13.95598022 60.67644886 -13.94604492 56.57836914 C-13.93455603 51.32794541 -13.95476292 46.07819429 -13.98396206 40.82785892 C-14.00231288 36.7897871 -14.0020338 32.75187678 -13.99632454 28.71377373 C-13.99617118 26.77809137 -14.00222757 24.84239817 -14.01461601 22.90675545 C-14.02950267 20.19920861 -14.01886626 17.49290836 -14.00170898 14.78540039 C-14.01137695 13.98679596 -14.02104492 13.18819153 -14.03100586 12.36538696 C-13.98109042 8.60153812 -13.64513741 6.4295375 -11.59364319 3.22923279 C-7.95895143 -0.28821341 -4.8198326 0.02829674 0 0 Z " fill="#F5F7F9" transform="translate(325.5,206.796875)"/>
<path d="M0 0 C0.83176758 0.21962402 1.66353516 0.43924805 2.52050781 0.66552734 C29.62810633 7.91165612 53.69713558 20.43097405 74 40 C74.71800781 40.680625 75.43601562 41.36125 76.17578125 42.0625 C79.25904422 45.22608846 81.41841889 47.58882317 81.625 52.125 C80.83503875 57.02275974 79.72495358 60.43676082 76 63.8125 C71.96826858 66.20634053 68.61011979 66.52903014 64 66 C59.21664939 63.39992145 55.39077197 59.43492073 51.4375 55.75 C31.3058776 37.51527819 5.61698648 27.61762996 -21 24 C-21.67047363 23.90501221 -22.34094727 23.81002441 -23.03173828 23.7121582 C-55.7033223 19.29675646 -90.15212959 29.22221644 -116.625 48.5625 C-121.46159459 52.39722857 -125.98567518 56.5550082 -130.4296875 60.8359375 C-134.22117006 64.02815838 -137.57255713 65.82156964 -142.5 66.4375 C-146.76506 65.9043675 -148.75593838 64.80168958 -152 62 C-154.56109867 58.24372195 -155.74537794 54.66738218 -155.52734375 50.0625 C-154.41730737 45.72102439 -151.15566632 43.00618739 -148 40 C-147.22398437 39.22785156 -146.44796875 38.45570312 -145.6484375 37.66015625 C-123.69818023 16.67146614 -94.81660195 3.07668762 -65 -2 C-63.96617187 -2.20367187 -62.93234375 -2.40734375 -61.8671875 -2.6171875 C-41.54380618 -6.05943074 -19.87162138 -5.44760777 0 0 Z " fill="#FDDC35" transform="translate(293,75)"/>
<path d="M0 0 C4.94261906 2.49413918 8.53361366 5.21560197 12.5 9.125 C36.30072655 31.59110637 70.66622705 44.00199754 103.28540039 43.39746094 C105.5283508 43.30616786 107.76132524 43.16563551 110 43 C110.83144531 42.9395752 111.66289062 42.87915039 112.51953125 42.81689453 C144.08603986 40.1921978 171.61084077 27.13024175 194.82421875 5.953125 C198.61298999 2.55207362 201.27052565 0.21618429 206.5 -0.4375 C211.82920294 0.22865037 214.80635297 1.64929414 218.375 5.6875 C220.49783872 10.01482508 220.53204782 12.21156958 220 17 C208.56638303 39.39982192 176.99641986 54.00994549 154.5 61.5 C111.01989733 75.3839718 66.29640386 72.19246703 25.5625 51.375 C12.35429375 44.41659522 0.77911698 35.29299994 -10 25 C-10.55429688 24.48566406 -11.10859375 23.97132813 -11.6796875 23.44140625 C-15.14421138 20.14325781 -15.91720698 18.01007488 -16.3125 13.1875 C-16.24803379 8.80379803 -14.88627274 6.35431697 -12 3 C-8.06265821 -0.19243929 -4.99943705 -0.60338033 0 0 Z " fill="#FDDC35" transform="translate(154,371)"/>
<path d="M0 0 C1.92199219 -0.02416992 1.92199219 -0.02416992 3.8828125 -0.04882812 C15.42160285 -0.05473939 24.92699489 1.67598358 33.875 9.3125 C40.3665355 16.11915858 43.89754764 22.64811881 44.375 32.0625 C44.165709 39.93582812 41.33053578 47.31990807 36.6875 53.6875 C32.96986365 57.15729393 27.21318043 62.3125 21.875 62.3125 C24.24488541 66.69516481 27.21398747 69.99586399 30.625 73.5625 C43.51226902 87.36694292 43.51226902 87.36694292 44.5625 93 C43.60483326 97.6142125 41.84263621 100.86956678 38 103.6875 C35.06391172 104.55105538 32.92985074 104.67908209 29.875 104.3125 C24.9200419 101.49377039 21.67038126 98.09041332 18.125 93.75 C17.08352488 92.50265762 16.04053159 91.25658141 14.99609375 90.01171875 C14.21854736 89.08238525 14.21854736 89.08238525 13.42529297 88.13427734 C10.3037808 84.46613186 7.01313811 80.95266166 3.73828125 77.421875 C1.875 75.3125 1.875 75.3125 0.875 73.3125 C0.86041748 73.95276123 0.84583496 74.59302246 0.83081055 75.25268555 C0.75608618 78.16904831 0.65950707 81.08429687 0.5625 84 C0.53994141 85.00740234 0.51738281 86.01480469 0.49414062 87.05273438 C0.24699167 93.86056482 -0.50567572 97.69317572 -5.4375 102.625 C-8.74331979 104.70074731 -10.28335207 104.93970783 -14.125 104.3125 C-18.08105547 102.18231629 -20.61505884 100.57083789 -22.125 96.3125 C-22.32618397 93.46770865 -22.41875439 90.7204559 -22.41552734 87.87548828 C-22.42224457 87.02622772 -22.42896179 86.17696716 -22.43588257 85.30197144 C-22.45487456 82.49552554 -22.45878736 79.68931865 -22.4609375 76.8828125 C-22.46736458 74.92992047 -22.47409287 72.97702941 -22.48110962 71.0241394 C-22.49308538 66.93029549 -22.49679013 62.83653598 -22.49560547 58.74267578 C-22.49540226 53.50134877 -22.52270502 48.26056386 -22.55714989 43.01936531 C-22.57940642 38.98556033 -22.58344339 34.95188607 -22.58238602 30.91802597 C-22.58474383 28.98595181 -22.59357748 27.05387414 -22.60905075 25.1218605 C-22.62868553 22.41695636 -22.62288274 19.71322452 -22.61083984 17.00830078 C-22.62207886 16.21329163 -22.63331787 15.41828247 -22.64489746 14.59918213 C-22.58608757 9.39108276 -21.53362118 6.46640164 -18.125 2.3125 C-13.15238063 -1.33072087 -5.85955333 -0.01447518 0 0 Z " fill="#F0F5F9" transform="translate(146.125,203.6875)"/>
<path d="M0 0 C3.98853554 2.63767387 7.43451312 5.82504298 11 9 C18.11210531 14.61304032 25.60032155 18.62651803 34 22 C35.010625 22.41636719 36.02125 22.83273437 37.0625 23.26171875 C57.05194643 30.24332688 80.47320095 26.82122376 99.23828125 17.953125 C105.67104372 14.73431509 111.2153433 10.43501371 116.61328125 5.71484375 C123.8507049 -0.51219602 123.8507049 -0.51219602 128.25 -0.6875 C133.68151271 0.30827733 136.73297243 1.53291545 140.375 5.75 C142.29553488 9.59106976 142.53077531 11.75379753 142 16 C135.58595397 31.25889295 116.39627172 40.42975786 101.88671875 46.4921875 C94.67699875 49.35186755 87.61341945 51.51358318 79.9375 52.6875 C79.11604492 52.81342529 78.29458984 52.93935059 77.44824219 53.0690918 C48.38858162 57.21045794 19.52227336 49.47859437 -4 32 C-6.24047784 30.18171071 -8.41350132 28.30027878 -10.5625 26.375 C-11.07586914 25.91955811 -11.58923828 25.46411621 -12.11816406 24.99487305 C-16.23959007 21.16316967 -17.77055316 18.10326266 -18.375 12.5625 C-17.82731693 7.35951082 -15.73712792 4.48896679 -11.8125 1.125 C-7.63799034 -0.54480386 -4.40756738 -1.18218474 0 0 Z " fill="#FCDC35" transform="translate(194,333)"/>
<path d="M0 0 C27.76053611 -0.90278166 53.3948082 8.13852123 74.71875 25.8125 C75.2554834 26.2556958 75.7922168 26.6988916 76.34521484 27.15551758 C80.80622412 30.99800742 84.3482566 34.72355283 85.09375 40.6875 C84.49973952 45.43958386 83.24201214 48.75040306 79.65625 52 C75.56555838 54.42884815 71.30424994 55.06960218 66.65625 54.1875 C63.82256452 52.54817782 61.54802754 50.40806701 59.15625 48.1875 C49.31677097 39.62788693 38.31034509 33.60409123 25.65625 30.1875 C25.01921143 30.0126709 24.38217285 29.8378418 23.72583008 29.65771484 C3.37018646 24.60092402 -17.6899961 27.89649697 -35.84375 38 C-42.16184058 41.84708092 -47.74540503 46.37671882 -53.34375 51.1875 C-57.02821337 54.33346488 -59.33888806 54.71502767 -64.09375 54.53515625 C-67.66707088 53.98302854 -69.68910951 52.58931759 -72.34375 50.1875 C-75.254122 45.821942 -75.9943749 42.39249921 -75.34375 37.1875 C-68.2333562 22.32031295 -47.34545449 11.71297685 -32.34375 6.1875 C-21.63093238 2.69660675 -11.22053399 0.62918882 0 0 Z " fill="#FCDC35" transform="translate(251.34375,124.8125)"/>
<path d="M0 0 C0.89534958 -0.00807175 1.79069916 -0.01614349 2.71318054 -0.02445984 C4.61044374 -0.03830305 6.50773188 -0.04902414 8.4050293 -0.05688477 C11.30240269 -0.07408921 14.19863254 -0.11797152 17.09570312 -0.16210938 C18.93879369 -0.17223707 20.78189396 -0.18075293 22.625 -0.1875 C23.92211662 -0.21376213 23.92211662 -0.21376213 25.24543762 -0.24055481 C29.36707527 -0.22574171 31.46858375 -0.10324442 35.03588867 2.13989258 C38.34538219 5.65467038 38.34941862 8.31159276 38.296875 12.98046875 C37.87105248 16.35204981 36.47694701 17.97848868 34.01171875 20.23828125 C30.73301965 22.28590136 28.20411076 22.47437053 24.37109375 22.43359375 C23.30117187 22.42714844 22.23125 22.42070312 21.12890625 22.4140625 C20.01773438 22.39730469 18.9065625 22.38054687 17.76171875 22.36328125 C16.63507813 22.35425781 15.5084375 22.34523437 14.34765625 22.3359375 C11.56891953 22.31238888 8.79029216 22.2765185 6.01171875 22.23828125 C6.01171875 28.17828125 6.01171875 34.11828125 6.01171875 40.23828125 C7.60242188 40.18027344 9.193125 40.12226563 10.83203125 40.0625 C12.93356435 40.01559078 15.03512926 39.97009187 17.13671875 39.92578125 C18.1834375 39.88388672 19.23015625 39.84199219 20.30859375 39.79882812 C29.03927964 39.66068436 29.03927964 39.66068436 32.69140625 42.6328125 C35.96996686 46.31429386 35.96996686 46.31429386 36.1015625 49.2265625 C36.05128906 49.99355469 36.00101562 50.76054687 35.94921875 51.55078125 C35.91699219 52.31003906 35.88476562 53.06929688 35.8515625 53.8515625 C34.85033573 56.69690926 33.45237893 58.43027275 31.05981445 60.26782227 C26.70358539 62.33195512 21.84733422 61.73932189 17.13671875 61.55078125 C16.06679687 61.52822266 14.996875 61.50566406 13.89453125 61.48242188 C11.26547468 61.42373758 8.63933293 61.34169305 6.01171875 61.23828125 C6.03266602 62.20652832 6.05361328 63.17477539 6.07519531 64.17236328 C6.14790387 67.7840277 6.19362931 71.39562816 6.23144531 75.0078125 C6.25149097 76.56749369 6.27873532 78.12710038 6.31347656 79.68652344 C6.36231001 81.93573439 6.3847569 84.18394715 6.40234375 86.43359375 C6.42298889 87.12446075 6.44363403 87.81532776 6.46490479 88.52713013 C6.46721269 93.57060341 5.12134036 96.33130217 2.01171875 100.23828125 C-0.35068341 102.60068341 -1.54375487 103.17063593 -4.86328125 103.67578125 C-8.80148093 103.12443329 -10.89749152 101.69686399 -13.98828125 99.23828125 C-16.54280615 95.40649391 -16.29104039 92.26659042 -16.29467773 87.82299805 C-16.30300125 86.96412994 -16.31132477 86.10526184 -16.31990051 85.22036743 C-16.34403044 82.37603239 -16.35277672 79.5319266 -16.359375 76.6875 C-16.3683398 74.71075877 -16.37746161 72.73401825 -16.38673401 70.75727844 C-16.40323521 66.61038564 -16.41092605 62.46357368 -16.41381836 58.31665039 C-16.41920009 53.00681149 -16.45686676 47.69773411 -16.50256252 42.38811016 C-16.53233013 38.30368793 -16.53954187 34.21944903 -16.54054451 30.13492775 C-16.54474821 28.17771737 -16.5571885 26.22050652 -16.57806206 24.26340294 C-16.60496729 21.52228507 -16.6001536 18.78293126 -16.58764648 16.04174805 C-16.60248077 15.23581711 -16.61731506 14.42988617 -16.63259888 13.59953308 C-16.57950413 9.50595264 -16.19085336 6.98779628 -13.57582092 3.75056458 C-9.28906283 -0.41151687 -5.71764269 0.04850139 0 0 Z " fill="#F3F6F9" transform="translate(221.98828125,204.76171875)"/>
<path d="M0 0 C2.92810762 1.81651121 5.43591638 3.87183276 7 7 C7.11937637 9.80552218 7.1783782 12.58697018 7.19287109 15.39355469 C7.20104858 16.26203033 7.20922607 17.13050598 7.21765137 18.02529907 C7.24252051 20.90748399 7.25902596 23.78961959 7.2734375 26.671875 C7.27876118 27.65548256 7.28408485 28.63909012 7.28956985 29.65250397 C7.31630905 34.85947389 7.33568081 40.06641978 7.35009766 45.2734375 C7.36674028 50.65164258 7.41151277 56.02923425 7.4624691 61.40720749 C7.49612928 65.54222313 7.5076738 69.67709303 7.51332474 73.81223297 C7.52004144 75.79457533 7.53527437 77.77690796 7.55921555 79.75911713 C7.59084129 82.5362082 7.59090773 85.31164324 7.58349609 88.08886719 C7.59990143 88.90571991 7.61630676 89.72257263 7.63320923 90.56417847 C7.58826331 94.68478364 7.22189558 97.23418957 4.58853149 100.4944458 C1.01423006 103.95417035 1.01423006 103.95417035 -1.98828125 104.08984375 C-2.75527344 104.03957031 -3.52226562 103.98929687 -4.3125 103.9375 C-5.07175781 103.90527344 -5.83101563 103.87304688 -6.61328125 103.83984375 C-10.17637799 102.58605357 -12.15225982 100.18817663 -14 97 C-14.69992628 94.04079091 -14.68481644 91.18312233 -14.64697266 88.15234375 C-14.65573425 87.283284 -14.66449585 86.41422424 -14.67352295 85.51882935 C-14.69545579 82.65787216 -14.68098617 79.79847176 -14.6640625 76.9375 C-14.6674324 74.94262395 -14.67228646 72.9477499 -14.67855835 70.95288086 C-14.68592139 66.77665617 -14.67524233 62.60096702 -14.65185547 58.42480469 C-14.62336822 53.07795076 -14.63977521 47.73235174 -14.66971779 42.38554382 C-14.68780601 38.26760442 -14.6820257 34.14996138 -14.66907883 30.03201294 C-14.66574904 28.06088105 -14.66981683 26.08972204 -14.68147659 24.11862183 C-14.69421039 21.36091083 -14.67477355 18.60521738 -14.64697266 15.84765625 C-14.65709381 15.03708771 -14.66721497 14.22651917 -14.67764282 13.39138794 C-14.60200709 9.33120799 -14.20738285 6.74566716 -11.64706421 3.50952148 C-7.93881829 -0.0060422 -5.00605429 -0.58894756 0 0 Z " fill="#F5F7F9" transform="translate(286,204)"/>
<path d="M0 0 C19.70731707 0 19.70731707 0 26.75 6.5625 C33.22250726 15.38266243 33.95690401 25.39335318 33 36 C31.66784816 43.28370792 29.07293884 49.08879478 23.625 54.25 C15.78331764 59.47778824 9.90538625 58 0 58 C0 38.86 0 19.72 0 0 Z " fill="#62B8FE" transform="translate(333,228)"/>
<path d="M0 0 C0.66 0.66 1.32 1.32 2 2 C0.7934375 2.8971875 0.7934375 2.8971875 -0.4375 3.8125 C-3.22327984 5.80947276 -3.22327984 5.80947276 -4 9 C-4.10144977 11.69650536 -4.14683822 14.36724054 -4.14526367 17.06396484 C-4.14862228 17.88542496 -4.1519809 18.70688507 -4.15544128 19.55323792 C-4.16495064 22.27248644 -4.16689442 24.99167338 -4.16796875 27.7109375 C-4.17118145 29.60039292 -4.17454553 31.48984809 -4.17805481 33.37930298 C-4.18404612 37.34206723 -4.18589472 41.30480967 -4.18530273 45.26757812 C-4.18520114 50.34407918 -4.19885083 55.42044029 -4.21607494 60.49690819 C-4.22719675 64.40026491 -4.22922188 68.30358783 -4.22869301 72.20695877 C-4.22987295 74.07844144 -4.2342955 75.94992498 -4.24202538 77.82139206 C-4.25182841 80.44010957 -4.24894593 83.05852364 -4.24291992 85.67724609 C-4.25134918 86.83543098 -4.25134918 86.83543098 -4.25994873 88.01701355 C-4.2277194 93.53194382 -3.64166714 97.21347988 0.125 101.3125 C0.74375 101.869375 1.3625 102.42625 2 103 C-0.38349487 104.19174743 -1.66923121 104.11075627 -4.3125 103.9375 C-5.07175781 103.90527344 -5.83101563 103.87304688 -6.61328125 103.83984375 C-10.17637799 102.58605357 -12.15225982 100.18817663 -14 97 C-14.69992628 94.04079091 -14.68481644 91.18312233 -14.64697266 88.15234375 C-14.65573425 87.283284 -14.66449585 86.41422424 -14.67352295 85.51882935 C-14.69545579 82.65787216 -14.68098617 79.79847176 -14.6640625 76.9375 C-14.6674324 74.94262395 -14.67228646 72.9477499 -14.67855835 70.95288086 C-14.68592139 66.77665617 -14.67524233 62.60096702 -14.65185547 58.42480469 C-14.62336822 53.07795076 -14.63977521 47.73235174 -14.66971779 42.38554382 C-14.68780601 38.26760442 -14.6820257 34.14996138 -14.66907883 30.03201294 C-14.66574904 28.06088105 -14.66981683 26.08972204 -14.68147659 24.11862183 C-14.69421039 21.36091083 -14.67477355 18.60521738 -14.64697266 15.84765625 C-14.65709381 15.03708771 -14.66721497 14.22651917 -14.67764282 13.39138794 C-14.60200709 9.33120799 -14.20738285 6.74566716 -11.64706421 3.50952148 C-7.87647244 -0.06514853 -5.05993841 -0.32297479 0 0 Z " fill="#E0ECFC" transform="translate(286,204)"/>
<path d="M0 0 C0.91007812 0.00902344 1.82015625 0.01804688 2.7578125 0.02734375 C3.45648438 0.03894531 4.15515625 0.05054688 4.875 0.0625 C4.45032975 0.46792463 4.0256595 0.87334927 3.58812046 1.29105949 C-0.1757815 5.20336911 -1.81038007 7.88526566 -1.90484619 13.33557129 C-1.88798767 14.10671265 -1.87112915 14.877854 -1.85375977 15.67236328 C-1.8594548 16.50416107 -1.86514984 17.33595886 -1.87101746 18.19296265 C-1.88207078 20.92379471 -1.85014257 23.65219587 -1.81640625 26.3828125 C-1.81282667 28.28896809 -1.81147225 30.19512904 -1.8122406 32.10128784 C-1.80755843 36.08755841 -1.78278528 40.07301595 -1.74243164 44.05908203 C-1.69139302 49.16477813 -1.67999129 54.26958408 -1.68226719 59.37550545 C-1.68145102 63.30810011 -1.66499172 67.24050077 -1.64326286 71.17303085 C-1.63372839 73.05565805 -1.62780661 74.93830716 -1.62558174 76.82095718 C-1.61906708 79.45149359 -1.59278792 82.0810916 -1.56079102 84.71142578 C-1.56215057 85.4866156 -1.56351013 86.26180542 -1.56491089 87.06048584 C-1.48514401 91.55147724 -0.91777444 94.49575223 1.875 98.0625 C4.33620841 99.29310421 6.13276866 99.2682723 8.8828125 99.37890625 C9.86894531 99.42080078 10.85507812 99.46269531 11.87109375 99.50585938 C12.90363281 99.54517578 13.93617188 99.58449219 15 99.625 C16.56041016 99.68977539 16.56041016 99.68977539 18.15234375 99.75585938 C20.72642528 99.8621288 23.30060508 99.96416583 25.875 100.0625 C25.875 100.3925 25.875 100.7225 25.875 101.0625 C21.8365943 101.1369389 17.79845707 101.19123729 13.75952148 101.22729492 C12.38705483 101.24233432 11.01463586 101.26277133 9.64233398 101.28881836 C7.66411344 101.32541221 5.68553486 101.34066698 3.70703125 101.35546875 C2.51827393 101.3711792 1.3295166 101.38688965 0.10473633 101.40307617 C-4.23693577 100.94524621 -6.65247469 99.50212889 -9.74102783 96.48257446 C-11.7529342 92.9644667 -11.55123179 89.55421678 -11.52905273 85.60961914 C-11.53591599 84.75875229 -11.54277924 83.90788544 -11.54985046 83.03123474 C-11.56814491 80.21987194 -11.56427716 77.40906578 -11.55859375 74.59765625 C-11.56315436 72.64236774 -11.56845957 70.68708083 -11.57447815 68.73179626 C-11.58341451 64.63371265 -11.58098022 60.53582386 -11.57104492 56.43774414 C-11.55955603 51.18732041 -11.57976292 45.93756929 -11.60896206 40.68723392 C-11.62731288 36.6491621 -11.6270338 32.61125178 -11.62132454 28.57314873 C-11.62117118 26.63746637 -11.62722757 24.70177317 -11.63961601 22.76613045 C-11.65450267 20.05858361 -11.64386626 17.35228336 -11.62670898 14.64477539 C-11.63637695 13.84617096 -11.64604492 13.04756653 -11.65600586 12.22476196 C-11.60609042 8.46091312 -11.27013741 6.2889125 -9.21864319 3.08860779 C-6.04858775 0.02080997 -4.30344361 -0.05517235 0 0 Z " fill="#DFECFC" transform="translate(323.125,206.9375)"/>
<path d="M0 0 C0.91007813 0.00902344 1.82015625 0.01804688 2.7578125 0.02734375 C3.45648438 0.03894531 4.15515625 0.05054688 4.875 0.0625 C4.09125 0.64 3.3075 1.2175 2.5 1.8125 C-0.12997652 4.06676559 -0.98722718 4.8947096 -2.125 8.0625 C-2.32091403 10.84721981 -2.40849796 13.53150102 -2.3996582 16.31591797 C-2.40476913 17.14567139 -2.40988007 17.9754248 -2.41514587 18.83032227 C-2.42903977 21.57185084 -2.4280851 24.31312792 -2.42578125 27.0546875 C-2.42966861 28.96273899 -2.43400337 30.87078961 -2.43876648 32.77883911 C-2.44622849 36.77853195 -2.44593778 40.77813651 -2.44067383 44.77783203 C-2.43488269 49.89800787 -2.4518017 55.01782157 -2.4750185 60.13793755 C-2.48976693 64.07909246 -2.49062597 68.02016042 -2.48750877 71.96133804 C-2.48802154 73.8487431 -2.49325092 75.73615308 -2.50332069 77.62353134 C-2.5156877 80.26602283 -2.50889167 82.90781231 -2.49731445 85.55029297 C-2.50495819 86.32660065 -2.51260193 87.10290833 -2.52047729 87.90274048 C-2.47417573 92.69563374 -1.72125783 96.01734906 0.875 100.0625 C1.865 100.7225 2.855 101.3825 3.875 102.0625 C1.00891871 103.49554064 -0.93800783 103.36894155 -4.125 103.0625 C-7.7828218 101.02256092 -9.79446174 99.55830738 -12.125 96.0625 C-12.33524767 93.22562505 -12.42907314 90.48554588 -12.43139648 87.6472168 C-12.43972 86.78834869 -12.44804352 85.92948059 -12.45661926 85.04458618 C-12.48074919 82.20025114 -12.48949547 79.35614535 -12.49609375 76.51171875 C-12.50505855 74.53497752 -12.51418036 72.558237 -12.52345276 70.58149719 C-12.53995396 66.43460439 -12.5476448 62.28779243 -12.55053711 58.14086914 C-12.55591884 52.83103024 -12.59358551 47.52195286 -12.63928127 42.21232891 C-12.66904888 38.12790668 -12.67626062 34.04366778 -12.67726326 29.9591465 C-12.68146696 28.00193612 -12.69390725 26.04472527 -12.71478081 24.08762169 C-12.74168604 21.34650382 -12.73687235 18.60715001 -12.72436523 15.8659668 C-12.73919952 15.06003586 -12.75403381 14.25410492 -12.76931763 13.42375183 C-12.71622288 9.33017139 -12.32757211 6.81201503 -9.71253967 3.57478333 C-6.21096601 0.1750499 -4.74311974 -0.06080923 0 0 Z " fill="#E0ECFC" transform="translate(218.125,204.9375)"/>
<path d="M0 0 C6.81969475 -0.43299649 12.277597 -0.02289234 18 4 C25.81664883 12.65176089 26.56811348 22.42244048 26.3046875 33.53515625 C25.90250768 41.43416726 23.97588636 47.57028866 18.125 53.0625 C11.95193168 57.81451207 6.56316653 58.30252666 -1 58 C-0.10087891 57.55527344 -0.10087891 57.55527344 0.81640625 57.1015625 C8.65507835 53.14716978 12.31983652 48.56044373 15.3125 40.4375 C17.58437499 29.23252434 16.75848973 17.99098103 10.8671875 8.09765625 C7.8898409 4.06542195 4.56997229 2.6129314 0 1 C0 0.67 0 0.34 0 0 Z " fill="#DFECFC" transform="translate(349,228)"/>
<path d="M0 0 C14.87996971 -0.45550928 14.87996971 -0.45550928 20.9375 4.625 C22.65124322 8.45572014 22.21045239 12.03321628 21 16 C17.62549013 19.55211565 14.78321605 20.94448269 9.86328125 21.09765625 C6.57552083 21.06510417 3.28776042 21.03255208 0 21 C0 14.07 0 7.14 0 0 Z " fill="#61B7FE" transform="translate(146,226)"/>
<path d="M0 0 C4.96451154 3.69155986 8.52058379 8.00684349 12.37109375 12.828125 C15.8200964 17.06604515 19.58222748 21.01144562 23.32006836 24.99316406 C26.84023656 28.74425696 30.28725843 32.54029418 33.6328125 36.44921875 C35.02934969 38.03329094 36.49154324 39.52278347 38 41 C35.13391871 42.43304064 33.18699217 42.30644155 30 42 C25.04086639 39.19345735 21.79335289 35.77543011 18.25 31.4375 C17.20852488 30.19015762 16.16553159 28.94408141 15.12109375 27.69921875 C14.60272949 27.07966309 14.08436523 26.46010742 13.55029297 25.82177734 C10.4287808 22.15363186 7.13813811 18.64016166 3.86328125 15.109375 C2 13 2 13 1 11 C0.67 18.26 0.34 25.52 0 33 C-0.33 33 -0.66 33 -1 33 C-1.02936502 29.18751655 -1.04692035 25.37506274 -1.0625 21.5625 C-1.07087891 20.49322266 -1.07925781 19.42394531 -1.08789062 18.32226562 C-1.10684631 12.12375772 -0.82063259 6.1450519 0 0 Z " fill="#DDEBFC" transform="translate(146,266)"/>
<path d="M0 0 C11.90900701 -0.56312292 11.90900701 -0.56312292 16 3 C18.46406448 6.69609672 18.67864807 9.71027391 18 14 C16.2395325 16.99931499 14.77924074 18.53245555 11.8125 20.3125 C7.85892303 21.27892993 4.04861703 21.1587693 0 21 C3 19 3 19 5.125 17.9375 C7.7336267 15.24191908 7.96935699 12.89795445 8.23828125 9.22265625 C8.16081154 6.68258679 8.16081154 6.68258679 5.75 4.0625 C3.87257564 2.65443173 1.95263936 1.30175958 0 0 Z " fill="#DFECFC" transform="translate(159,226)"/>
</svg>
