<svg xmlns="http://www.w3.org/2000/svg" width="400" height="400" viewBox="0 0 400 400" version="1.1"><path d="M 118 83.008 C 110.715 84.260, 102.967 88.281, 95.684 94.590 C 87.660 101.540, 83.941 107.186, 80.798 117.187 L 78.500 124.500 78.500 209 C 78.500 289.514, 78.590 293.783, 80.416 299.500 C 83.615 309.515, 86.484 314.199, 93.648 321.102 C 101.020 328.206, 105.404 330.861, 113.932 333.390 C 118.739 334.815, 129.142 335, 204.453 335 C 283.845 335, 289.985 334.877, 296.144 333.170 C 304.670 330.805, 310.522 327.321, 316.962 320.774 C 323.234 314.398, 328.355 305.575, 330.449 297.535 C 332.765 288.645, 332.783 129.425, 330.469 120.542 C 325.636 101.987, 308.799 85.827, 291.317 82.964 C 284.382 81.829, 124.630 81.869, 118 83.008 M 118 146.991 C 118 147.868, 119.119 152.446, 120.487 157.164 C 121.855 161.882, 125.892 177.163, 129.458 191.121 C 133.024 205.079, 138.021 224.375, 140.562 234 C 143.103 243.625, 146.320 255.887, 147.712 261.250 L 150.243 271 168.079 271 L 185.915 271 187.933 264.223 C 189.043 260.496, 190.807 254.084, 191.853 249.973 C 194.775 238.486, 204.167 207.605, 205.027 206.654 C 205.448 206.188, 206.285 208.100, 206.885 210.902 C 207.486 213.704, 210.964 225.785, 214.613 237.748 C 221.168 259.239, 222.216 262.868, 223.422 268.250 L 224.038 271 241.803 271 L 259.569 271 264.844 250.750 C 267.746 239.613, 272.624 221.050, 275.685 209.500 C 278.746 197.950, 283.454 179.725, 286.147 169 C 288.840 158.275, 291.289 148.713, 291.589 147.750 C 292.094 146.130, 290.865 146, 275.106 146 L 258.077 146 257.072 149.750 C 256.520 151.813, 255.360 156.875, 254.496 161 C 251.859 173.579, 241.869 212.448, 241.051 213.308 C 240.629 213.753, 239.752 211.418, 239.103 208.120 C 238.454 204.822, 234.566 190.367, 230.462 175.999 C 226.358 161.630, 223 148.992, 223 147.914 C 223 146.031, 222.307 145.965, 205.340 146.227 L 187.681 146.500 181.756 168 C 178.498 179.825, 174.452 194.578, 172.765 200.784 C 171.078 206.991, 169.385 212.262, 169.002 212.499 C 168.618 212.736, 166.602 205.858, 164.520 197.215 C 156.861 165.414, 152.169 146.836, 151.672 146.339 C 151.392 146.059, 143.701 145.731, 134.581 145.612 C 119.976 145.421, 118 145.585, 118 146.991" stroke="none" fill="#050405" fill-rule="evenodd"/><path d="M 217 26.677 C 168.642 30.202, 129.022 43.731, 94.500 68.506 C 80.472 78.574, 58.777 99.544, 50.807 110.741 C 30.584 139.149, 22.479 154.784, 13.351 183 C 9.579 194.657, 7.108 205.510, 5.496 217.500 C 3.623 231.426, 3.616 240.916, 5.470 254.123 C 10.406 289.290, 29.486 318.654, 61.696 340.657 C 73.926 349.011, 94.919 359.080, 107 362.385 C 110.025 363.213, 121.500 366.362, 132.500 369.384 C 181.235 382.771, 205.267 387, 232.609 387 C 250.350 387, 256.445 386.077, 272.590 380.945 C 283.229 377.563, 289.347 374.631, 303.500 366.133 C 328.233 351.283, 356.628 326.272, 364.959 312 C 373.777 296.893, 377.434 288.988, 381.944 275.285 C 397.492 228.045, 397.339 184.571, 381.459 138 C 376.978 124.860, 374.251 118.993, 367.011 106.925 C 349.105 77.076, 327.064 57.756, 291.078 40.367 C 281 35.497, 267.660 31.819, 250 29.041 C 241.941 27.773, 224.529 25.939, 222.789 26.175 C 222.080 26.271, 219.475 26.497, 217 26.677 M 118 83.008 C 110.715 84.260, 102.967 88.281, 95.684 94.590 C 87.660 101.540, 83.941 107.186, 80.798 117.187 L 78.500 124.500 78.500 209 C 78.500 289.514, 78.590 293.783, 80.416 299.500 C 83.615 309.515, 86.484 314.199, 93.648 321.102 C 101.020 328.206, 105.404 330.861, 113.932 333.390 C 118.739 334.815, 129.142 335, 204.453 335 C 283.845 335, 289.985 334.877, 296.144 333.170 C 304.670 330.805, 310.522 327.321, 316.962 320.774 C 323.234 314.398, 328.355 305.575, 330.449 297.535 C 332.765 288.645, 332.783 129.425, 330.469 120.542 C 325.636 101.987, 308.799 85.827, 291.317 82.964 C 284.382 81.829, 124.630 81.869, 118 83.008 M 118 146.991 C 118 147.868, 119.119 152.446, 120.487 157.164 C 121.855 161.882, 125.892 177.163, 129.458 191.121 C 133.024 205.079, 138.021 224.375, 140.562 234 C 143.103 243.625, 146.320 255.887, 147.712 261.250 L 150.243 271 168.079 271 L 185.915 271 187.933 264.223 C 189.043 260.496, 190.807 254.084, 191.853 249.973 C 194.775 238.486, 204.167 207.605, 205.027 206.654 C 205.448 206.188, 206.285 208.100, 206.885 210.902 C 207.486 213.704, 210.964 225.785, 214.613 237.748 C 221.168 259.239, 222.216 262.868, 223.422 268.250 L 224.038 271 241.803 271 L 259.569 271 264.844 250.750 C 267.746 239.613, 272.624 221.050, 275.685 209.500 C 278.746 197.950, 283.454 179.725, 286.147 169 C 288.840 158.275, 291.289 148.713, 291.589 147.750 C 292.094 146.130, 290.865 146, 275.106 146 L 258.077 146 257.072 149.750 C 256.520 151.813, 255.360 156.875, 254.496 161 C 251.859 173.579, 241.869 212.448, 241.051 213.308 C 240.629 213.753, 239.752 211.418, 239.103 208.120 C 238.454 204.822, 234.566 190.367, 230.462 175.999 C 226.358 161.630, 223 148.992, 223 147.914 C 223 146.031, 222.307 145.965, 205.340 146.227 L 187.681 146.500 181.756 168 C 178.498 179.825, 174.452 194.578, 172.765 200.784 C 171.078 206.991, 169.385 212.262, 169.002 212.499 C 168.618 212.736, 166.602 205.858, 164.520 197.215 C 156.861 165.414, 152.169 146.836, 151.672 146.339 C 151.392 146.059, 143.701 145.731, 134.581 145.612 C 119.976 145.421, 118 145.585, 118 146.991" stroke="none" fill="#e198bf" fill-rule="evenodd"/></svg>